<svg xmlns="http://www.w3.org/2000/svg" enable-background="new 0 0 276.83 233.894" viewBox="0 0 276.83 233.894"><polygon points="71.574 51.713 69.324 59.698 56.531 50.05 54.578 53.06 70.879 63.702 72.398 56.388 86.563 67.426 87.037 66.759"/><polygon points="86.727 82.396 65.875 86.481 71.072 92.776 56.098 97.729 57.439 101.001 75.188 93.762 70.119 88.431 86.996 83.151"/><polygon points="42.303 78.61 65.273 79.954 62.537 71.56 83.555 74.568 83.652 73.6 58.945 67.249 61.326 76.756 42.535 74.378"/><path d="M102.654 196.766c.789 3.296 2.893 6.266 6.09 8.037 1.92 1.063 3.998 1.567 6.045 1.568 4.399 0 8.664-2.326 10.947-6.446 2.186-3.938 4.045-7.872 5.648-11.779h-25.549C105.191 191.114 104.098 193.993 102.654 196.766zM109.24 176.146h25.318c-.059-.095-.127-.183-.184-.279-1.971-3.336-2.518-7.24-1.551-10.988l6.377-24.747c-.316-4.919-.922-9.558-1.717-13.87h-25.533c1.457 6.131 2.521 13.258 2.494 20.965C114.434 156.202 113.053 165.946 109.24 176.146zM160.203 61.728l52.842 42.309c3.182-3.626 6.111-8.126 8.764-13.479l-55.928-44.78C165.934 51.214 163.846 57.111 160.203 61.728zM229.545 107c1.814-2.266 2.188-5.212 1.26-7.75-2.328 4.238-4.74 7.77-7.125 10.73C225.893 109.873 228.051 108.866 229.545 107z"/><circle cx="185.803" cy="22.501" r="22.496" transform="rotate(-77.273 185.813 22.498)"/><path d="M276.83,182.146c0-28.578-23.168-51.746-51.746-51.746c-5.834,0-11.436,0.979-16.668,2.76l5.09,10.695
		c3.666-1.107,7.551-1.709,11.578-1.709c22.092,0,40,17.91,40,40c0,22.092-17.908,40.002-40,40.002s-40.002-17.91-40.002-40.002
		c0-13.785,6.977-25.94,17.588-33.134l-5.088-10.692c-14.563,9.156-24.248,25.355-24.248,43.826c0,28.58,23.17,51.748,51.75,51.748
		C253.662,233.894,276.83,210.726,276.83,182.146z"/><path d="M103.326,186.146h49.805c1.322,0,2.547-0.644,3.297-1.734l38.574-56.168l26.469,55.621
		c0.686,1.439,2.121,2.283,3.615,2.283c0.576,0,1.162-0.125,1.717-0.389c1.994-0.949,2.842-3.34,1.893-5.332l-27.143-57.035
		c2.344-0.645,5.217-1.756,8.367-3.662c6.91-4.174,15.014-12.133,21.838-26.78c0.934-2.002,0.068-4.381-1.934-5.314
		c-2.002-0.936-4.381-0.068-5.316,1.934v-0.002c-6.303,13.481-13.301,20.02-18.732,23.317c-5.436,3.289-9.441,3.373-9.934,3.379
		c-0.018,0-0.033,0-0.045,0c-0.031-0.002-0.063,0.002-0.096,0.002c-0.023,0-0.045-0.006-0.068-0.006h-21.227
		c0.15,1.629,0.039,3.309-0.393,4.98l-0.779,3.02h14.795l-23.68,34.484l-3.447,13.375c-1.787,6.932-8.494,11.574-15.601,10.797
		c-0.686-0.076-1.377-0.201-2.057-0.377c-2.83-0.729-5.314-2.257-7.209-4.393h-32.709c-1.217-15.889-9.6-29.763-21.933-38.401
		l1.609-2.51l4.049-6.317l4.267-6.658h44.787l-16.205-5.988c-1.744-0.326-3.592-1.027-5.846-2.012h-4.945
		c0.789-0.424,1.455-0.882,1.981-1.368c-4.236-2.107-8.393-4.938-11.006-9.215c-1.967-0.264-4.076-0.415-6.285-0.415
		c-10.309,0-18.666,3.133-18.666,7c0,2.423,3.285,4.558,8.273,5.814c0.664,0.167,1.367,0.313,2.088,0.447l-5.824,9.085l-3.547,5.536
		l-1.619,2.523c-6.867-3.369-14.588-5.268-22.756-5.268C23.168,130.4,0,153.568,0,182.146c0,6.927,1.371,13.53,3.84,19.568
		c6.781,16.584,21.912,28.865,40.174,31.602c2.523,0.379,5.105,0.578,7.734,0.578c2.631,0,5.213-0.199,7.738-0.578
		c18.258-2.738,33.385-15.017,40.166-31.598C101.643,196.854,102.906,191.619,103.326,186.146z M91.549,178.146H56.777
		l18.272-28.503C84.139,156.17,90.383,166.407,91.549,178.146z M11.748,182.146c0-22.09,17.908-40,40-40
		c5.832,0,11.365,1.258,16.361,3.501l-22.012,34.341c-0.793,1.236-0.846,2.789-0.143,4.078c0.705,1.287,2.041,2.08,3.51,2.08h42.084
		c-2.008,20.214-19.059,36.002-39.801,36.002C29.656,222.148,11.748,204.237,11.748,182.146z"/><path d="M164.307,105.896L135.77,95.351c6.176-12.844,15.576-24.893,22.189-34.04c6.777-7.835,8.363-20.222,1.506-25.731
		c-3.932-3.161-9.943-4.825-16.375-3.567l7.213,3.161c5.047,2.212,7.357,8.123,5.145,13.173c-1.596,3.637-5.191,5.988-9.162,5.988
		c-1.385,0-2.734-0.284-4.012-0.844l-18.309-8.023c-3.537,4.014-6.559,7.841-9.229,11.764l-5.719,23.551
		c-1.018,4.183-4.543,7.191-8.752,7.592c-3.857,15.869,5.447,21.98,13.803,25.71c2.44,1.088,4.514,1.926,6.361,2.25l24.623,9.1
		l-10.295,39.943c-1.725,6.684,2.297,13.5,8.984,15.223c0.592,0.152,1.186,0.262,1.777,0.326c6.074,0.664,11.875-3.219,13.447-9.311
		l13.111-50.875C173.68,114.532,170.322,108.12,164.307,105.896z"/><path d="M99.307,86.425c3.605,0,6.879-2.456,7.768-6.114l9.75-40.155l26.252,11.503c4.047,1.774,8.766-0.068,10.539-4.114
		c1.773-4.048-0.07-8.767-4.115-10.541l-34.986-15.331c-2.174-0.955-4.637-0.895-6.762,0.158c-2.127,1.053-3.664,2.974-4.223,5.28
		L91.525,76.536c-1.045,4.293,1.592,8.619,5.887,9.661C98.047,86.352,98.682,86.425,99.307,86.425z"/></svg>