<svg xmlns="http://www.w3.org/2000/svg" width="64" height="64" viewBox="0 0 64 64"><path fill="#1D5DAA" d="M32.001 2.242c-16.498 0-29.672 13.377-29.672 29.875 0 15 10.671 27.416 25.671 29.549V43h-7v-8h7v-6.104c0-6.703 4.034-10.352 10.014-10.352 2.864 0 4.986.213 5.986.309v7.004l-4.133.002c-3.251 0-3.867 1.547-3.867 3.812V35h7.435l-1.011 8H36v18.758c14-1.814 26.035-14.389 26.035-29.641 0-16.498-13.536-29.875-30.034-29.875z"/><path fill="#064D93" d="M53.125 10.992c-11.666-11.666-30.584-11.666-42.25 0l17.16 17.159c.291-6.116 4.145-9.606 9.775-9.606 2.864 0 5.19.213 6.19.309v7.004l-4.133.002c-3.251 0-3.867 1.547-3.867 3.812V35h7.435l-1.011 8h-.036l10.579 10.335c11.665-11.666 11.824-30.677.158-42.343z"/><path fill="#3E78CC" d="M3.875 33.867c0-16.498 13.378-29.875 29.876-29.875 7.804 0 14.905 2.996 20.229 7.896-5.46-5.93-13.284-9.646-21.979-9.646-16.498 0-29.876 13.377-29.876 29.875 0 8.693 3.719 16.518 9.646 21.979-4.899-5.323-7.896-12.426-7.896-20.229z"/><g fill="#064D93"><path d="M36 42.693v14.602l3.592 3.75c3.63-.93 6.95-2.646 9.912-4.769L36 42.693zM28 43h-6.971l.132-.178L28 49.209z"/></g><circle cx="12.604" cy="16.488" r="1.083" fill="#5397EA"/><circle cx="12.604" cy="23.676" r="1.083" fill="#5397EA"/><circle cx="20.292" cy="16.488" r="1.083" fill="#5397EA"/><circle cx="30.667" cy="9.738" r="1.083" fill="#1D5DAA"/><circle cx="51.348" cy="19.824" r="1.084" fill="#1D5DAA"/><circle cx="40.493" cy="11.679" r=".604" fill="#1D5DAA"/><circle cx="12.973" cy="46.199" r=".604" fill="#5397EA"/><circle cx="21.41" cy="11.012" r=".264" fill="#1D5DAA"/><circle cx="12.604" cy="34.738" r="1.083" fill="#5397EA"/><path fill="#5397EA" d="M13 33.951c0 .188-.314.338-.501.338-.185 0-.499-.15-.499-.338V17.16c0-.188.314-.338.499-.338.188 0 .501.15.501.338v16.791zM19.959 16c.186 0 .337.312.338.5-.002.186-.152.5-.338.5h-6.793c-.187 0-.338-.314-.338-.5 0-.188.151-.5.338-.5h6.793z"/><circle cx="17.792" cy="23.676" r="1.083" fill="#5397EA"/><path fill="#5397EA" d="M17.383 23c.123 0 .227.313.227.501-.003.186-.104.499-.227.499h-4.576c-.125 0-.229-.313-.229-.499 0-.188.104-.501.229-.501h4.576z"/><g fill="#5397EA"><circle cx="51.396" cy="47.512" r="1.084"/><circle cx="43.709" cy="47.512" r="1.084"/><circle cx="51.396" cy="29.262" r="1.084"/><path d="M51 30.049c0-.188.312-.338.5-.338.186 0 .5.15.5.338V46.84c0 .188-.314.338-.5.338-.188 0-.5-.15-.5-.338V30.049zM44.043 48c-.186 0-.338-.312-.338-.5.002-.186.152-.5.338-.5h6.793c.186 0 .338.314.338.5 0 .188-.152.5-.338.5h-6.793z"/></g></svg>