<svg xmlns="http://www.w3.org/2000/svg" width="32" height="32"><path d="M15.508 0a3 3 0 0 0-3 3 3 3 0 0 0 3 3 3 3 0 0 0 3-3 3 3 0 0 0-3-3zm-.006 6.96c-.042.001-.085.005-.127.009a1.509 1.509 0 0 0-.176.025c-.017.004-.033.004-.05.008L8.751 8.586a1.5 1.5 0 0 0-.994.81l-2.121 4.46A1.499 1.499 0 0 0 6.99 16a1.5 1.5 0 0 0 1.356-.855l1.816-3.819 3.346-.828v7.73l-2.272 6.06-3.455-2.075a1.5 1.5 0 0 0-1.545 2.574l5 3a1.498 1.498 0 0 0 1.268.129c.42-.146.754-.472.91-.889l1.89-5.047h.018l3.287 3.663.924 5.123a1.502 1.502 0 0 0 1.742 1.21 1.501 1.501 0 0 0 1.21-1.744l-1-5.54a1.505 1.505 0 0 0-.36-.737l-3.617-4.03v-8.16l2.672 1.942a1.493 1.493 0 0 0 1.558.125l3.948-1.994a1.498 1.498 0 0 0 .662-2.014 1.502 1.502 0 0 0-2.016-.664l-3.129 1.582-4.185-3.04c-.476-.326-.762-.578-1.082-.677a1.39 1.39 0 0 0-.143-.037c-.045-.009-.09-.013-.137-.017-.052-.005-.102-.01-.154-.01z"/></svg>