<svg xmlns="http://www.w3.org/2000/svg" viewBox="0 0 48 48"><g data-name="Watching movie"><path d="M36 47a2 2 0 0 0 2-2H34A2 2 0 0 0 36 47zM39.5 30H8.5a3 3 0 0 0-3 3.46L6.74 41.3a2 2 0 0 0 2 1.7H39.28a2 2 0 0 0 2-1.7l1.21-7.84A3 3 0 0 0 39.5 30zM12 47a2 2 0 0 0 2-2H10A2 2 0 0 0 12 47zM40 1H8A3 3 0 0 0 5 4V18a3 3 0 0 0 3 3h3a5 5 0 0 1 10 0h6a5 5 0 0 1 10 0h3a3 3 0 0 0 3-3V4A3 3 0 0 0 40 1zM27.66 12.79c-5.28 2.64-5 2.59-5.66 2.59a2 2 0 0 1-2-2c0-4.66-.31-5.68.95-6.46s1.88-.13 6.71 2.29A2 2 0 0 1 27.66 12.79z"/><polygon points="22 13.39 26.76 11 22 8.62 22 13.39"/><path d="M12.11,25.14A3,3,0,0,0,10,28H22a3,3,0,0,0-2.11-2.86A5,5,0,0,1,12.11,25.14Z"/><path d="M19 22V21a3 3 0 0 0-6 0v1a3 3 0 0 0 6 0zM28.11 25.14A3 3 0 0 0 26 28H38a3 3 0 0 0-2.11-2.86A5 5 0 0 1 28.11 25.14z"/><path d="M35,22V21a3,3,0,0,0-6,0v1a3,3,0,0,0,6,0Z"/></g></svg>