<svg xmlns="http://www.w3.org/2000/svg" enable-background="new 0 0 52 52" viewBox="0 0 52 52"><path fill="#E5F0F9" d="M50.00015,6.9549v38.09841c0,0.69793-0.57724,1.27518-1.27517,1.27518H3.27525
				c-0.69793,0-1.2751-0.57725-1.2751-1.27518V6.9549c0-0.71137,0.57717-1.27518,1.2751-1.27518h45.44973
				C49.42291,5.67971,50.00015,6.24353,50.00015,6.9549z"/><path d="M50.00167,6.95918v38.09044c0,0.70001-0.58002,1.27997-1.28003,1.27997H3.27169c-0.69,0-1.27002-0.57996-1.27002-1.27997
				v-3.72003h26.42999c9.20001,0,16.73999-7.52997,16.73999-16.72998V5.67915h3.54999
				C49.42166,5.67915,50.00167,6.23914,50.00167,6.95918z" opacity=".04"/><path fill="#3E5176" d="M49.99591,15.68706V6.9505c0-0.70083-0.57341-1.27424-1.27423-1.27424H3.27864
					c-0.70083,0-1.27424,0.57341-1.27424,1.27424v8.73655H49.99591z"/><path fill="#293C66" d="M48.72119,4.67603H3.27881c-1.25391,0-2.27441,1.02051-2.27441,2.27441
					c0,14.03691,0,23.75669,0,38.09912c0,1.25391,1.02051,2.27441,2.27441,2.27441h45.44238
					c1.25391,0,2.27441-1.02051,2.27441-2.27441c0-14.34217,0-24.06186,0-38.09912
					C50.99561,5.69654,49.9751,4.67603,48.72119,4.67603z M3.00439,6.95045c0-0.14893,0.12598-0.27441,0.27441-0.27441h45.44238
					c0.14844,0,0.27441,0.12549,0.27441,0.27441v7.73682H3.00439V6.95045z M48.72119,45.32398H3.27881
					c-0.14844,0-0.27441-0.12549-0.27441-0.27441v-28.3623h45.99121v28.3623C48.99561,45.19849,48.86963,45.32398,48.72119,45.32398
					z"/><path fill="#FFF" d="M16.7068 10.68166c0 .82483-.6749 1.49973-1.49973 1.49973-.83985 0-1.49973-.6749-1.49973-1.49973 0-.82484.65989-1.49973 1.49973-1.49973C16.03191 9.18193 16.7068 9.85683 16.7068 10.68166zM8.29829 10.68166c0 .82483-.67481 1.49973-1.49973 1.49973-.82484 0-1.49973-.6749-1.49973-1.49973 0-.82484.6749-1.49973 1.49973-1.49973C7.62348 9.18193 8.29829 9.85683 8.29829 10.68166z"/><path fill="#E1E1E1" d="M8.29829,10.68166c0,0.82987-0.67987,1.49973-1.49973,1.49973
								c-0.52987,0-0.97981-0.25996-1.24978-0.65986c0.23,0.15994,0.51993,0.24996,0.82987,0.24996
								c0.81986,0,1.49973-0.67987,1.49973-1.49973c0-0.30994-0.08995-0.58992-0.24996-0.82987
								C8.02838,9.71186,8.29829,10.17174,8.29829,10.68166z"/><path fill="#FFF" d="M12.50259,10.68166c0,0.82483-0.6749,1.49973-1.49973,1.49973s-1.49973-0.6749-1.49973-1.49973
							c0-0.82484,0.6749-1.49973,1.49973-1.49973S12.50259,9.85683,12.50259,10.68166z"/><path fill="#E1E1E1" d="M12.50259 10.68166c0 .82987-.67987 1.49973-1.49973 1.49973-.52987 0-.97981-.25996-1.24978-.65986.23.15994.51993.24996.82987.24996.81986 0 1.49973-.67987 1.49973-1.49973 0-.30994-.08995-.58992-.24996-.82987C12.23268 9.71186 12.50259 10.17174 12.50259 10.68166zM16.71176 10.67666c0 .82987-.67987 1.49973-1.49973 1.49973-.52987 0-.97981-.25996-1.24978-.65986.23.15995.51993.24996.82987.24996.81986 0 1.49973-.67987 1.49973-1.49973 0-.30994-.08995-.58992-.24996-.82987C16.44185 9.70686 16.71176 10.16674 16.71176 10.67666z"/><path fill="#FFF" d="M46.70645,9.62686v2.10961c0,0.24996-0.19992,0.43992-0.44987,0.43992H20.17117
						c-0.23995,0-0.43992-0.18997-0.43992-0.43992V9.62686c0-0.24996,0.19998-0.44993,0.43992-0.44993h26.08541
						C46.50653,9.17692,46.70645,9.3769,46.70645,9.62686z"/><path fill="#E1E1E1" d="M46.70645,9.62686v2.10961c0,0.24996-0.19992,0.43992-0.44987,0.43992H20.17117
						c-0.23995,0-0.43992-0.18997-0.43992-0.43992v-0.13999h23.87578c1.36975,0,2.47954-1.06976,2.54953-2.41955h0.10002
						C46.50653,9.17692,46.70645,9.3769,46.70645,9.62686z"/><g><polygon fill="#C6C6C6" points="34.448 22.883 34.448 27.799 39.431 31.229 34.448 34.655 34.448 39.571 44.151 32.898 44.151 29.561"/><path d="M44.15307,29.56402v3.33495l-9.70452,6.67002v-2.34354l5.23788-3.60537
							c1.72255-1.18176,2.75412-3.1347,2.75412-5.22785L44.15307,29.56402z" opacity=".05"/><polygon fill="#C6C6C6" points="17.554 22.883 17.554 27.799 12.571 31.229 17.554 34.655 17.554 39.571 7.851 32.898 7.851 29.561"/><polygon points="17.553 37.105 17.553 39.569 7.849 32.899 7.849 30.435" opacity=".05"/><polygon fill="#C6C6C6" points="31.702 42.379 24.545 19.632 20.3 19.632 27.457 42.379"/><polygon points="31.704 42.383 29.762 42.383 22.601 19.629 24.544 19.629" opacity=".05"/><path fill="#293C66" d="M34.44775 40.32105c-.11914 0-.23926-.02832-.34863-.08643-.24707-.12939-.40137-.38525-.40137-.66357v-4.91553c0-.24707.12109-.47803.3252-.61816l4.08496-2.80908-4.08496-2.81152c-.2041-.13965-.3252-.37061-.3252-.61768v-4.91602c0-.27881.1543-.53418.40137-.66406s.5459-.11133.77344.04639l9.7031 6.67822c.20413.13965.32522.37061.32522.61768v3.33643c0 .24707-.12109.47803-.32522.61816l-9.7031 6.67334C34.74561 40.27662 34.59717 40.32105 34.44775 40.32105zM35.19775 35.05006v3.09473l8.20313-5.6416v-2.54785l-8.20313-5.64551v3.09521l4.6582 3.20605c.2041.13965.3252.37109.3252.61768 0 .24707-.12207.47803-.3252.61816L35.19775 35.05006zM17.5542 40.32105c-.14941 0-.29785-.04443-.4248-.13184l-9.70313-6.67334c-.2041-.14014-.3252-.37109-.3252-.61816v-3.33643c0-.24707.12109-.47803.3252-.61768l9.70313-6.67822c.22754-.15771.52734-.17627.77344-.04639.24707.12988.40137.38525.40137.66406v4.91602c0 .24658-.12109.47803-.3252.61768l-4.08398 2.81152 4.08398 2.80908c.2041.14014.3252.37109.3252.61816v4.91553c0 .27832-.1543.53418-.40137.66357C17.79346 40.29273 17.67334 40.32105 17.5542 40.32105zM8.60107 32.50318l8.20313 5.6416v-3.09473l-4.65723-3.20313c-.2041-.14014-.3252-.37109-.3252-.61816 0-.24658.12109-.47803.3252-.61768l4.65723-3.20605v-3.09521l-8.20313 5.64551V32.50318z"/><g><path fill="#293C66" d="M31.70264,43.12916h-4.24512c-0.32715,0-0.61719-0.2124-0.71582-0.5249l-7.15723-22.74707
					c-0.07129-0.22803-0.03027-0.47607,0.11133-0.66895c0.14063-0.19238,0.36523-0.30615,0.60449-0.30615h4.24512
					c0.32715,0,0.61719,0.2124,0.71582,0.5249l7.15723,22.74707c0.07129,0.22803,0.03027,0.47607-0.11133,0.66895
					C32.1665,43.01539,31.94189,43.12916,31.70264,43.12916z M28.00732,41.62916h2.67285l-6.68457-21.24707h-2.67285
					L28.00732,41.62916z"/></g></g></svg>