<svg xmlns="http://www.w3.org/2000/svg" width="64" height="64" viewBox="0 0 64 64"><path fill="#7FD371" d="M32.01 1h-.019C14.902 1 1 14.903 1 31.999a30.786 30.786 0 0 0 5.903 18.17L3.042 61.688l11.914-3.809A30.754 30.754 0 0 0 32.01 63C49.1 63 63 49.094 63 32 63 14.904 49.1 1 32.01 1zm18.036 43.775c-.745 2.113-3.716 3.863-6.084 4.375-1.622.345-3.735.619-10.858-2.334-9.111-3.772-14.978-13.03-15.433-13.633-.438-.601-3.681-4.902-3.681-9.349s2.259-6.616 3.171-7.546c.747-.765 1.986-1.109 3.17-1.109.384 0 .728.018 1.039.034.911.038 1.366.094 1.967 1.532.747 1.803 2.569 6.251 2.788 6.706.218.456.438 1.075.127 1.676-.292.62-.546.896-1.001 1.423-.457.527-.895.93-1.349 1.494-.419.492-.894 1.021-.364 1.932.529.895 2.35 3.864 5.028 6.25 3.461 3.08 6.267 4.065 7.27 4.484.746.311 1.64.236 2.187-.346.692-.748 1.549-1.986 2.423-3.207.619-.877 1.403-.985 2.222-.676.839.291 5.268 2.479 6.179 2.935.909.456 1.511.674 1.729 1.057.218.385.218 2.188-.53 4.302z"/><path fill="#6DBC61" d="M1 31.999a30.786 30.786 0 0 0 5.903 18.17L3.042 61.688l11.914-3.809A30.754 30.754 0 0 0 32.01 63C49.1 63 63 49.094 63 32 63 14.904 49.1 1 32.01 1h-.019m18.055 43.775c-.745 2.113-3.716 3.863-6.084 4.375-1.622.345-3.735.619-10.858-2.334-9.111-3.772-14.978-13.03-15.433-13.633-.438-.601-3.681-4.902-3.681-9.349s2.259-6.616 3.171-7.546c.747-.765 1.986-1.109 3.17-1.109.384 0 .728.018 1.039.034.911.038 1.366.094 1.967 1.532.747 1.803 2.569 6.251 2.788 6.706.218.456.438 1.075.127 1.676-.292.62-.546.896-1.001 1.423-.457.527-.895.93-1.349 1.494-.419.492-.894 1.021-.364 1.932.529.895 2.35 3.864 5.028 6.25 3.461 3.08 6.267 4.065 7.27 4.484.746.311 1.64.236 2.187-.346.692-.748 1.549-1.986 2.423-3.207.619-.877 1.403-.985 2.222-.676.839.291 5.268 2.479 6.179 2.935.909.456 1.511.674 1.729 1.057.218.385.218 2.188-.53 4.302z"/><path fill="#549B45" d="M41.921 2.635c7.904 6.757 13.063 17.085 13.063 25.829 0 4.816-1.569 9.322-4.294 13.193-.036.799-.213 1.902-.645 3.118-.745 2.113-3.716 3.863-6.084 4.375a8.242 8.242 0 0 1-1.516.198c-5.188 3.235-11.618 5.15-18.583 5.15-6.272 0-12.107-1.557-16.995-4.229L3.042 61.688l11.914-3.809A30.754 30.754 0 0 0 32.01 63C49.1 63 63 49.094 63 32c0-13.628-8.838-25.22-21.079-29.365z"/><path fill="#549B45" d="M42.667 36.482c.208.072.632.26 1.168.507L23.119 16.274c.072.137.145.294.218.472.747 1.803 2.569 6.251 2.788 6.706.218.456.438 1.075.127 1.676-.292.62-.546.896-1.001 1.423-.457.527-.895.93-1.349 1.494-.419.492-.894 1.021-.364 1.932.529.895 2.35 3.864 5.028 6.25 3.461 3.08 6.267 4.065 7.27 4.484.746.311 1.64.236 2.187-.346.692-.748 1.549-1.986 2.423-3.207.618-.877 1.403-.985 2.221-.676z"/><path fill="#5CAA4F" d="M13.992 23.862l-.204.205.223.222c-.008-.142-.019-.284-.019-.427z"/></svg>